<mxfile host="app.diagrams.net" modified="2021-11-29T08:56:11.499Z" agent="5.0 (Windows NT 10.0; Win64; x64) AppleWebKit/537.36 (KHTML, like Gecko) Chrome/96.0.4664.45 Safari/537.36" etag="f_m3nzHSENn0YR5oppuf" version="15.8.6" type="github">
  <diagram id="kgpKYQtTHZ0yAKxKKP6v" name="Page-1">
    <mxGraphModel dx="2680" dy="2104" grid="1" gridSize="10" guides="1" tooltips="1" connect="1" arrows="1" fold="1" page="1" pageScale="1" pageWidth="850" pageHeight="1100" math="0" shadow="0">
      <root>
        <mxCell id="0" />
        <mxCell id="1" parent="0" />
        <mxCell id="3nuBFxr9cyL0pnOWT2aG-1" value="host-abnormal" style="shape=umlLifeline;perimeter=lifelinePerimeter;container=1;collapsible=0;recursiveResize=0;shadow=0;strokeWidth=1;sketch=1;rounded=1;" parent="1" vertex="1">
          <mxGeometry x="80" y="-200" width="120" height="540" as="geometry" />
        </mxCell>
        <mxCell id="3nuBFxr9cyL0pnOWT2aG-2" value="" style="points=[];perimeter=orthogonalPerimeter;shadow=0;strokeWidth=1;sketch=1;rounded=1;arcSize=0;" parent="3nuBFxr9cyL0pnOWT2aG-1" vertex="1">
          <mxGeometry x="55" y="70" width="10" height="340" as="geometry" />
        </mxCell>
        <mxCell id="3nuBFxr9cyL0pnOWT2aG-3" value="申请单释放（Kafka）" style="verticalAlign=bottom;startArrow=oval;endArrow=block;startSize=8;shadow=0;strokeWidth=1;sketch=1;curved=1;" parent="3nuBFxr9cyL0pnOWT2aG-1" target="3nuBFxr9cyL0pnOWT2aG-2" edge="1">
          <mxGeometry relative="1" as="geometry">
            <mxPoint x="-105" y="70" as="sourcePoint" />
          </mxGeometry>
        </mxCell>
        <mxCell id="rhFOE1qrNNWpOJfDpRXr-81" value="" style="edgeStyle=elbowEdgeStyle;elbow=vertical;endArrow=classic;html=1;rounded=1;sketch=1;curved=1;exitX=0.919;exitY=0.549;exitDx=0;exitDy=0;exitPerimeter=0;entryX=1.101;entryY=0.68;entryDx=0;entryDy=0;entryPerimeter=0;" edge="1" parent="3nuBFxr9cyL0pnOWT2aG-1" source="3nuBFxr9cyL0pnOWT2aG-2" target="3nuBFxr9cyL0pnOWT2aG-2">
          <mxGeometry width="50" height="50" relative="1" as="geometry">
            <mxPoint x="380" y="530" as="sourcePoint" />
            <mxPoint x="180" y="370" as="targetPoint" />
            <Array as="points">
              <mxPoint x="180" y="360" />
              <mxPoint x="150" y="337" />
            </Array>
          </mxGeometry>
        </mxCell>
        <mxCell id="rhFOE1qrNNWpOJfDpRXr-82" value="申请单&lt;br&gt;异常分析" style="edgeLabel;html=1;align=center;verticalAlign=middle;resizable=0;points=[];" vertex="1" connectable="0" parent="rhFOE1qrNNWpOJfDpRXr-81">
          <mxGeometry x="-0.3548" y="-10" relative="1" as="geometry">
            <mxPoint x="23" y="13" as="offset" />
          </mxGeometry>
        </mxCell>
        <mxCell id="rhFOE1qrNNWpOJfDpRXr-85" value="" style="edgeStyle=elbowEdgeStyle;elbow=horizontal;endArrow=classic;html=1;rounded=1;sketch=1;curved=1;entryX=0.5;entryY=0.297;entryDx=0;entryDy=0;entryPerimeter=0;exitX=1.101;exitY=0.175;exitDx=0;exitDy=0;exitPerimeter=0;" edge="1" parent="3nuBFxr9cyL0pnOWT2aG-1">
          <mxGeometry width="50" height="50" relative="1" as="geometry">
            <mxPoint x="66.01000000000022" y="91.5" as="sourcePoint" />
            <mxPoint x="60" y="132.98000000000002" as="targetPoint" />
            <Array as="points">
              <mxPoint x="189" y="72" />
              <mxPoint x="188.91" y="102" />
            </Array>
          </mxGeometry>
        </mxCell>
        <mxCell id="rhFOE1qrNNWpOJfDpRXr-86" value="校验分析&lt;br&gt;已结束的订单" style="edgeLabel;html=1;align=center;verticalAlign=middle;resizable=0;points=[];" vertex="1" connectable="0" parent="rhFOE1qrNNWpOJfDpRXr-85">
          <mxGeometry x="-0.4978" y="-17" relative="1" as="geometry">
            <mxPoint x="42" y="4" as="offset" />
          </mxGeometry>
        </mxCell>
        <mxCell id="3nuBFxr9cyL0pnOWT2aG-5" value="host-monitor" style="shape=umlLifeline;perimeter=lifelinePerimeter;container=1;collapsible=0;recursiveResize=0;shadow=0;strokeWidth=1;sketch=1;rounded=1;" parent="1" vertex="1">
          <mxGeometry x="480" y="-200" width="100" height="550" as="geometry" />
        </mxCell>
        <mxCell id="3nuBFxr9cyL0pnOWT2aG-6" value="" style="points=[];perimeter=orthogonalPerimeter;shadow=0;strokeWidth=1;sketch=1;rounded=1;arcSize=50;" parent="3nuBFxr9cyL0pnOWT2aG-5" vertex="1">
          <mxGeometry x="45" y="160" width="10" height="60" as="geometry" />
        </mxCell>
        <mxCell id="rhFOE1qrNNWpOJfDpRXr-1" value="" style="whiteSpace=wrap;html=1;align=left;sketch=1;rounded=1;" vertex="1" parent="1">
          <mxGeometry x="349" y="1165" width="1040" height="810" as="geometry" />
        </mxCell>
        <mxCell id="rhFOE1qrNNWpOJfDpRXr-2" style="edgeStyle=orthogonalEdgeStyle;orthogonalLoop=1;jettySize=auto;html=1;sketch=1;curved=1;" edge="1" parent="1" source="rhFOE1qrNNWpOJfDpRXr-3">
          <mxGeometry relative="1" as="geometry">
            <mxPoint x="140" y="1085" as="targetPoint" />
          </mxGeometry>
        </mxCell>
        <mxCell id="rhFOE1qrNNWpOJfDpRXr-3" value="Kafka" style="whiteSpace=wrap;html=1;sketch=1;rounded=1;" vertex="1" parent="1">
          <mxGeometry x="80" y="455" width="120" height="60" as="geometry" />
        </mxCell>
        <mxCell id="rhFOE1qrNNWpOJfDpRXr-4" style="edgeStyle=orthogonalEdgeStyle;orthogonalLoop=1;jettySize=auto;html=1;startArrow=none;sketch=1;curved=1;" edge="1" parent="1" source="rhFOE1qrNNWpOJfDpRXr-17">
          <mxGeometry relative="1" as="geometry">
            <mxPoint x="380" y="1085" as="targetPoint" />
          </mxGeometry>
        </mxCell>
        <mxCell id="rhFOE1qrNNWpOJfDpRXr-5" value="host-abnormal" style="whiteSpace=wrap;html=1;sketch=1;rounded=1;" vertex="1" parent="1">
          <mxGeometry x="320" y="455" width="120" height="60" as="geometry" />
        </mxCell>
        <mxCell id="rhFOE1qrNNWpOJfDpRXr-6" style="edgeStyle=orthogonalEdgeStyle;orthogonalLoop=1;jettySize=auto;html=1;sketch=1;curved=1;" edge="1" parent="1" source="rhFOE1qrNNWpOJfDpRXr-7">
          <mxGeometry relative="1" as="geometry">
            <mxPoint x="811" y="1085" as="targetPoint" />
          </mxGeometry>
        </mxCell>
        <mxCell id="rhFOE1qrNNWpOJfDpRXr-7" value="host-monitor" style="whiteSpace=wrap;html=1;sketch=1;rounded=1;" vertex="1" parent="1">
          <mxGeometry x="751" y="455" width="120" height="60" as="geometry" />
        </mxCell>
        <mxCell id="rhFOE1qrNNWpOJfDpRXr-8" style="edgeStyle=orthogonalEdgeStyle;orthogonalLoop=1;jettySize=auto;html=1;sketch=1;curved=1;" edge="1" parent="1" source="rhFOE1qrNNWpOJfDpRXr-9">
          <mxGeometry relative="1" as="geometry">
            <mxPoint x="1068" y="1085" as="targetPoint" />
          </mxGeometry>
        </mxCell>
        <mxCell id="rhFOE1qrNNWpOJfDpRXr-9" value="mysql" style="whiteSpace=wrap;html=1;sketch=1;rounded=1;" vertex="1" parent="1">
          <mxGeometry x="1008" y="455" width="120" height="60" as="geometry" />
        </mxCell>
        <mxCell id="rhFOE1qrNNWpOJfDpRXr-10" style="edgeStyle=orthogonalEdgeStyle;orthogonalLoop=1;jettySize=auto;html=1;sketch=1;curved=1;" edge="1" parent="1" source="rhFOE1qrNNWpOJfDpRXr-23">
          <mxGeometry relative="1" as="geometry">
            <mxPoint x="320" y="575" as="targetPoint" />
          </mxGeometry>
        </mxCell>
        <mxCell id="rhFOE1qrNNWpOJfDpRXr-11" style="edgeStyle=orthogonalEdgeStyle;orthogonalLoop=1;jettySize=auto;html=1;sketch=1;curved=1;" edge="1" parent="1" source="rhFOE1qrNNWpOJfDpRXr-22">
          <mxGeometry relative="1" as="geometry">
            <mxPoint x="550" y="580" as="targetPoint" />
          </mxGeometry>
        </mxCell>
        <mxCell id="rhFOE1qrNNWpOJfDpRXr-12" style="edgeStyle=orthogonalEdgeStyle;orthogonalLoop=1;jettySize=auto;html=1;sketch=1;curved=1;" edge="1" parent="1" source="rhFOE1qrNNWpOJfDpRXr-13">
          <mxGeometry relative="1" as="geometry">
            <mxPoint x="380" y="785" as="targetPoint" />
            <Array as="points">
              <mxPoint x="821" y="785" />
              <mxPoint x="390" y="785" />
            </Array>
          </mxGeometry>
        </mxCell>
        <mxCell id="rhFOE1qrNNWpOJfDpRXr-13" value="&lt;span style=&quot;font-size: 11px ; background-color: rgb(255 , 255 , 255)&quot;&gt;拉取硬件信息，申请事件&lt;/span&gt;&lt;br style=&quot;font-size: 11px&quot;&gt;&lt;span style=&quot;font-size: 11px ; background-color: rgb(255 , 255 , 255)&quot;&gt;（apply_event）&lt;/span&gt;" style="text;html=1;strokeColor=none;fillColor=none;align=center;verticalAlign=middle;whiteSpace=wrap;sketch=1;rounded=1;" vertex="1" parent="1">
          <mxGeometry x="751" y="705" width="140" height="30" as="geometry" />
        </mxCell>
        <mxCell id="rhFOE1qrNNWpOJfDpRXr-14" style="edgeStyle=orthogonalEdgeStyle;orthogonalLoop=1;jettySize=auto;html=1;entryX=0;entryY=0.5;entryDx=0;entryDy=0;sketch=1;curved=1;" edge="1" parent="1" source="rhFOE1qrNNWpOJfDpRXr-19" target="rhFOE1qrNNWpOJfDpRXr-20">
          <mxGeometry relative="1" as="geometry">
            <mxPoint x="820" y="840" as="targetPoint" />
            <Array as="points">
              <mxPoint x="750" y="840" />
              <mxPoint x="750" y="840" />
            </Array>
          </mxGeometry>
        </mxCell>
        <mxCell id="rhFOE1qrNNWpOJfDpRXr-15" value="&lt;span style=&quot;color: rgb(0, 0, 0); font-family: helvetica; font-size: 11px; font-style: normal; font-weight: 400; letter-spacing: normal; text-align: center; text-indent: 0px; text-transform: none; word-spacing: 0px; background-color: rgb(255, 255, 255); display: inline; float: none;&quot;&gt;存储分析结果&lt;/span&gt;" style="text;whiteSpace=wrap;html=1;sketch=1;rounded=1;" vertex="1" parent="1">
          <mxGeometry x="1021" y="935" width="79" height="30" as="geometry" />
        </mxCell>
        <mxCell id="rhFOE1qrNNWpOJfDpRXr-16" style="edgeStyle=orthogonalEdgeStyle;orthogonalLoop=1;jettySize=auto;html=1;entryX=0;entryY=0.5;entryDx=0;entryDy=0;sketch=1;curved=1;" edge="1" parent="1" source="rhFOE1qrNNWpOJfDpRXr-17" target="rhFOE1qrNNWpOJfDpRXr-15">
          <mxGeometry relative="1" as="geometry">
            <Array as="points">
              <mxPoint x="650" y="950" />
              <mxPoint x="650" y="950" />
            </Array>
          </mxGeometry>
        </mxCell>
        <mxCell id="rhFOE1qrNNWpOJfDpRXr-17" value="&lt;span style=&quot;font-size: 11px ; text-align: center ; background-color: rgb(255 , 255 , 255)&quot;&gt;异步分析&lt;br&gt;主机异常&lt;/span&gt;" style="text;whiteSpace=wrap;html=1;sketch=1;rounded=1;" vertex="1" parent="1">
          <mxGeometry x="352.5" y="935" width="55" height="40" as="geometry" />
        </mxCell>
        <mxCell id="rhFOE1qrNNWpOJfDpRXr-18" value="" style="edgeStyle=orthogonalEdgeStyle;orthogonalLoop=1;jettySize=auto;html=1;endArrow=none;sketch=1;curved=1;" edge="1" parent="1" source="rhFOE1qrNNWpOJfDpRXr-5" target="rhFOE1qrNNWpOJfDpRXr-17">
          <mxGeometry relative="1" as="geometry">
            <mxPoint x="380" y="1335" as="targetPoint" />
            <mxPoint x="380" y="515" as="sourcePoint" />
            <Array as="points">
              <mxPoint x="380" y="725" />
              <mxPoint x="380" y="725" />
            </Array>
          </mxGeometry>
        </mxCell>
        <mxCell id="rhFOE1qrNNWpOJfDpRXr-19" value="&lt;span style=&quot;font-size: 11px ; background-color: rgb(255 , 255 , 255)&quot;&gt;申请记录异常分析&lt;/span&gt;" style="text;html=1;strokeColor=none;fillColor=none;align=center;verticalAlign=middle;whiteSpace=wrap;sketch=1;rounded=1;" vertex="1" parent="1">
          <mxGeometry x="350" y="825" width="60" height="30" as="geometry" />
        </mxCell>
        <mxCell id="rhFOE1qrNNWpOJfDpRXr-20" value="&lt;span style=&quot;font-size: 11px ; background-color: rgb(255 , 255 , 255)&quot;&gt;存储分析结果&lt;/span&gt;" style="text;html=1;strokeColor=none;fillColor=none;align=center;verticalAlign=middle;whiteSpace=wrap;sketch=1;rounded=1;" vertex="1" parent="1">
          <mxGeometry x="1021" y="825" width="80" height="30" as="geometry" />
        </mxCell>
        <mxCell id="rhFOE1qrNNWpOJfDpRXr-21" style="edgeStyle=orthogonalEdgeStyle;orthogonalLoop=1;jettySize=auto;html=1;entryX=0;entryY=0.5;entryDx=0;entryDy=0;sketch=1;curved=1;" edge="1" parent="1" source="rhFOE1qrNNWpOJfDpRXr-22" target="rhFOE1qrNNWpOJfDpRXr-13">
          <mxGeometry relative="1" as="geometry">
            <Array as="points">
              <mxPoint x="380" y="720" />
            </Array>
          </mxGeometry>
        </mxCell>
        <mxCell id="rhFOE1qrNNWpOJfDpRXr-22" value="&lt;span style=&quot;font-size: 11px ; background-color: rgb(255 , 255 , 255)&quot;&gt;接收，校验，&lt;/span&gt;&lt;br style=&quot;font-size: 11px&quot;&gt;&lt;span style=&quot;font-size: 11px ; background-color: rgb(255 , 255 , 255)&quot;&gt;处理已结束的订单&lt;/span&gt;" style="text;html=1;strokeColor=none;fillColor=none;align=center;verticalAlign=middle;whiteSpace=wrap;sketch=1;rounded=1;" vertex="1" parent="1">
          <mxGeometry x="330" y="565" width="100" height="30" as="geometry" />
        </mxCell>
        <mxCell id="rhFOE1qrNNWpOJfDpRXr-23" value="computer-apply-record订单" style="text;html=1;align=center;verticalAlign=middle;resizable=0;points=[];autosize=1;strokeColor=none;fillColor=none;sketch=1;rounded=1;" vertex="1" parent="1">
          <mxGeometry x="60" y="565" width="160" height="20" as="geometry" />
        </mxCell>
        <mxCell id="rhFOE1qrNNWpOJfDpRXr-24" style="edgeStyle=orthogonalEdgeStyle;orthogonalLoop=1;jettySize=auto;html=1;startArrow=none;sketch=1;curved=1;" edge="1" parent="1" source="rhFOE1qrNNWpOJfDpRXr-27">
          <mxGeometry relative="1" as="geometry">
            <mxPoint x="590" y="1085" as="targetPoint" />
          </mxGeometry>
        </mxCell>
        <mxCell id="rhFOE1qrNNWpOJfDpRXr-25" value="cpc-base" style="whiteSpace=wrap;html=1;sketch=1;rounded=1;" vertex="1" parent="1">
          <mxGeometry x="530" y="455" width="120" height="60" as="geometry" />
        </mxCell>
        <mxCell id="rhFOE1qrNNWpOJfDpRXr-26" style="edgeStyle=orthogonalEdgeStyle;orthogonalLoop=1;jettySize=auto;html=1;sketch=1;curved=1;" edge="1" parent="1" source="rhFOE1qrNNWpOJfDpRXr-27">
          <mxGeometry relative="1" as="geometry">
            <mxPoint x="380" y="645" as="targetPoint" />
            <Array as="points">
              <mxPoint x="590" y="645" />
              <mxPoint x="390" y="645" />
            </Array>
          </mxGeometry>
        </mxCell>
        <mxCell id="rhFOE1qrNNWpOJfDpRXr-27" value="拉取申请记录详情" style="text;html=1;strokeColor=none;fillColor=none;align=center;verticalAlign=middle;whiteSpace=wrap;sketch=1;rounded=1;" vertex="1" parent="1">
          <mxGeometry x="560" y="565" width="60" height="30" as="geometry" />
        </mxCell>
        <mxCell id="rhFOE1qrNNWpOJfDpRXr-28" value="" style="edgeStyle=orthogonalEdgeStyle;orthogonalLoop=1;jettySize=auto;html=1;endArrow=none;sketch=1;curved=1;" edge="1" parent="1" source="rhFOE1qrNNWpOJfDpRXr-25" target="rhFOE1qrNNWpOJfDpRXr-27">
          <mxGeometry relative="1" as="geometry">
            <mxPoint x="590" y="1085" as="targetPoint" />
            <mxPoint x="590" y="515" as="sourcePoint" />
          </mxGeometry>
        </mxCell>
        <mxCell id="rhFOE1qrNNWpOJfDpRXr-29" style="edgeStyle=orthogonalEdgeStyle;orthogonalLoop=1;jettySize=auto;html=1;sketch=1;curved=1;" edge="1" parent="1" source="rhFOE1qrNNWpOJfDpRXr-30">
          <mxGeometry relative="1" as="geometry">
            <mxPoint x="259" y="1885" as="targetPoint" />
          </mxGeometry>
        </mxCell>
        <mxCell id="rhFOE1qrNNWpOJfDpRXr-30" value="中心端" style="whiteSpace=wrap;html=1;sketch=1;rounded=1;" vertex="1" parent="1">
          <mxGeometry x="199" y="1255" width="120" height="60" as="geometry" />
        </mxCell>
        <mxCell id="rhFOE1qrNNWpOJfDpRXr-31" value="host-abnormal" style="whiteSpace=wrap;html=1;sketch=1;rounded=1;" vertex="1" parent="1">
          <mxGeometry x="439" y="1255" width="120" height="60" as="geometry" />
        </mxCell>
        <mxCell id="rhFOE1qrNNWpOJfDpRXr-32" style="edgeStyle=orthogonalEdgeStyle;orthogonalLoop=1;jettySize=auto;html=1;sketch=1;curved=1;" edge="1" parent="1" source="rhFOE1qrNNWpOJfDpRXr-33">
          <mxGeometry relative="1" as="geometry">
            <mxPoint x="930" y="1885" as="targetPoint" />
          </mxGeometry>
        </mxCell>
        <mxCell id="rhFOE1qrNNWpOJfDpRXr-33" value="host-monitor" style="whiteSpace=wrap;html=1;sketch=1;rounded=1;" vertex="1" parent="1">
          <mxGeometry x="870" y="1255" width="120" height="60" as="geometry" />
        </mxCell>
        <mxCell id="rhFOE1qrNNWpOJfDpRXr-34" style="edgeStyle=orthogonalEdgeStyle;orthogonalLoop=1;jettySize=auto;html=1;sketch=1;curved=1;" edge="1" parent="1" source="rhFOE1qrNNWpOJfDpRXr-35">
          <mxGeometry relative="1" as="geometry">
            <mxPoint x="1187" y="1885" as="targetPoint" />
          </mxGeometry>
        </mxCell>
        <mxCell id="rhFOE1qrNNWpOJfDpRXr-35" value="mysql" style="whiteSpace=wrap;html=1;sketch=1;rounded=1;" vertex="1" parent="1">
          <mxGeometry x="1127" y="1255" width="120" height="60" as="geometry" />
        </mxCell>
        <mxCell id="rhFOE1qrNNWpOJfDpRXr-36" style="edgeStyle=orthogonalEdgeStyle;orthogonalLoop=1;jettySize=auto;html=1;sketch=1;curved=1;" edge="1" parent="1" source="rhFOE1qrNNWpOJfDpRXr-50">
          <mxGeometry relative="1" as="geometry">
            <mxPoint x="439" y="1375" as="targetPoint" />
          </mxGeometry>
        </mxCell>
        <mxCell id="rhFOE1qrNNWpOJfDpRXr-37" style="edgeStyle=orthogonalEdgeStyle;orthogonalLoop=1;jettySize=auto;html=1;sketch=1;curved=1;" edge="1" parent="1" source="rhFOE1qrNNWpOJfDpRXr-47">
          <mxGeometry relative="1" as="geometry">
            <mxPoint x="669" y="1380" as="targetPoint" />
          </mxGeometry>
        </mxCell>
        <mxCell id="rhFOE1qrNNWpOJfDpRXr-38" style="edgeStyle=orthogonalEdgeStyle;orthogonalLoop=1;jettySize=auto;html=1;sketch=1;curved=1;" edge="1" parent="1" source="rhFOE1qrNNWpOJfDpRXr-39">
          <mxGeometry relative="1" as="geometry">
            <mxPoint x="499" y="1585" as="targetPoint" />
            <Array as="points">
              <mxPoint x="940" y="1585" />
              <mxPoint x="509" y="1585" />
            </Array>
          </mxGeometry>
        </mxCell>
        <mxCell id="rhFOE1qrNNWpOJfDpRXr-39" value="&lt;span style=&quot;font-size: 11px ; background-color: rgb(255 , 255 , 255)&quot;&gt;拉取硬件信息，申请事件&lt;/span&gt;&lt;br style=&quot;font-size: 11px&quot;&gt;&lt;span style=&quot;font-size: 11px ; background-color: rgb(255 , 255 , 255)&quot;&gt;（apply_event）&lt;/span&gt;" style="text;html=1;strokeColor=none;fillColor=none;align=center;verticalAlign=middle;whiteSpace=wrap;sketch=1;rounded=1;" vertex="1" parent="1">
          <mxGeometry x="870" y="1505" width="140" height="30" as="geometry" />
        </mxCell>
        <mxCell id="rhFOE1qrNNWpOJfDpRXr-40" style="edgeStyle=orthogonalEdgeStyle;orthogonalLoop=1;jettySize=auto;html=1;entryX=0;entryY=0.5;entryDx=0;entryDy=0;sketch=1;curved=1;" edge="1" parent="1" source="rhFOE1qrNNWpOJfDpRXr-42" target="rhFOE1qrNNWpOJfDpRXr-45">
          <mxGeometry relative="1" as="geometry">
            <mxPoint x="939" y="1640" as="targetPoint" />
            <Array as="points">
              <mxPoint x="869" y="1640" />
              <mxPoint x="869" y="1640" />
            </Array>
          </mxGeometry>
        </mxCell>
        <mxCell id="rhFOE1qrNNWpOJfDpRXr-41" value="" style="edgeStyle=orthogonalEdgeStyle;orthogonalLoop=1;jettySize=auto;html=1;endArrow=none;sketch=1;curved=1;" edge="1" parent="1" source="rhFOE1qrNNWpOJfDpRXr-31">
          <mxGeometry relative="1" as="geometry">
            <mxPoint x="499" y="1735" as="targetPoint" />
            <mxPoint x="499" y="1315" as="sourcePoint" />
            <Array as="points">
              <mxPoint x="499" y="1525" />
              <mxPoint x="499" y="1525" />
            </Array>
          </mxGeometry>
        </mxCell>
        <mxCell id="rhFOE1qrNNWpOJfDpRXr-42" value="&lt;span style=&quot;font-size: 11px ; background-color: rgb(255 , 255 , 255)&quot;&gt;申请记录异常分析&lt;/span&gt;" style="text;html=1;strokeColor=none;fillColor=none;align=center;verticalAlign=middle;whiteSpace=wrap;sketch=1;rounded=1;" vertex="1" parent="1">
          <mxGeometry x="469" y="1625" width="60" height="30" as="geometry" />
        </mxCell>
        <mxCell id="rhFOE1qrNNWpOJfDpRXr-43" style="edgeStyle=orthogonalEdgeStyle;orthogonalLoop=1;jettySize=auto;html=1;fontSize=24;exitX=0.5;exitY=1;exitDx=0;exitDy=0;sketch=1;curved=1;" edge="1" parent="1" source="rhFOE1qrNNWpOJfDpRXr-45">
          <mxGeometry relative="1" as="geometry">
            <mxPoint x="-150" y="1805" as="targetPoint" />
            <Array as="points">
              <mxPoint x="1180" y="1805" />
            </Array>
          </mxGeometry>
        </mxCell>
        <mxCell id="rhFOE1qrNNWpOJfDpRXr-44" value="同步" style="edgeLabel;html=1;align=center;verticalAlign=middle;resizable=0;points=[];fontSize=11;sketch=1;rounded=1;" vertex="1" connectable="0" parent="rhFOE1qrNNWpOJfDpRXr-43">
          <mxGeometry x="0.9141" y="-3" relative="1" as="geometry">
            <mxPoint as="offset" />
          </mxGeometry>
        </mxCell>
        <mxCell id="rhFOE1qrNNWpOJfDpRXr-45" value="&lt;span style=&quot;font-size: 11px ; background-color: rgb(255 , 255 , 255)&quot;&gt;存储分析结果&lt;/span&gt;" style="text;html=1;strokeColor=none;fillColor=none;align=center;verticalAlign=middle;whiteSpace=wrap;sketch=1;rounded=1;" vertex="1" parent="1">
          <mxGeometry x="1140" y="1625" width="80" height="30" as="geometry" />
        </mxCell>
        <mxCell id="rhFOE1qrNNWpOJfDpRXr-46" style="edgeStyle=orthogonalEdgeStyle;orthogonalLoop=1;jettySize=auto;html=1;entryX=0;entryY=0.5;entryDx=0;entryDy=0;sketch=1;curved=1;" edge="1" parent="1" source="rhFOE1qrNNWpOJfDpRXr-47" target="rhFOE1qrNNWpOJfDpRXr-39">
          <mxGeometry relative="1" as="geometry">
            <Array as="points">
              <mxPoint x="499" y="1520" />
            </Array>
          </mxGeometry>
        </mxCell>
        <mxCell id="rhFOE1qrNNWpOJfDpRXr-47" value="&lt;span style=&quot;font-size: 11px ; background-color: rgb(255 , 255 , 255)&quot;&gt;接收，校验，&lt;/span&gt;&lt;br style=&quot;font-size: 11px&quot;&gt;&lt;span style=&quot;font-size: 11px ; background-color: rgb(255 , 255 , 255)&quot;&gt;处理已结束的订单&lt;/span&gt;" style="text;html=1;strokeColor=none;fillColor=none;align=center;verticalAlign=middle;whiteSpace=wrap;sketch=1;rounded=1;" vertex="1" parent="1">
          <mxGeometry x="449" y="1365" width="100" height="30" as="geometry" />
        </mxCell>
        <mxCell id="rhFOE1qrNNWpOJfDpRXr-48" style="edgeStyle=orthogonalEdgeStyle;orthogonalLoop=1;jettySize=auto;html=1;fontSize=11;sketch=1;curved=1;" edge="1" parent="1" source="rhFOE1qrNNWpOJfDpRXr-50">
          <mxGeometry relative="1" as="geometry">
            <mxPoint x="50" y="1375" as="targetPoint" />
          </mxGeometry>
        </mxCell>
        <mxCell id="rhFOE1qrNNWpOJfDpRXr-49" value="kafka" style="edgeLabel;html=1;align=center;verticalAlign=middle;resizable=0;points=[];fontSize=11;sketch=1;rounded=1;" vertex="1" connectable="0" parent="rhFOE1qrNNWpOJfDpRXr-48">
          <mxGeometry x="0.1451" y="-4" relative="1" as="geometry">
            <mxPoint as="offset" />
          </mxGeometry>
        </mxCell>
        <mxCell id="rhFOE1qrNNWpOJfDpRXr-50" value="申请单end" style="text;html=1;align=center;verticalAlign=middle;resizable=0;points=[];autosize=1;strokeColor=none;fillColor=none;sketch=1;rounded=1;" vertex="1" parent="1">
          <mxGeometry x="224" y="1365" width="70" height="20" as="geometry" />
        </mxCell>
        <mxCell id="rhFOE1qrNNWpOJfDpRXr-51" style="edgeStyle=orthogonalEdgeStyle;orthogonalLoop=1;jettySize=auto;html=1;startArrow=none;sketch=1;curved=1;" edge="1" parent="1" source="rhFOE1qrNNWpOJfDpRXr-54">
          <mxGeometry relative="1" as="geometry">
            <mxPoint x="709" y="1885" as="targetPoint" />
          </mxGeometry>
        </mxCell>
        <mxCell id="rhFOE1qrNNWpOJfDpRXr-52" value="cpc-base" style="whiteSpace=wrap;html=1;sketch=1;rounded=1;" vertex="1" parent="1">
          <mxGeometry x="649" y="1255" width="120" height="60" as="geometry" />
        </mxCell>
        <mxCell id="rhFOE1qrNNWpOJfDpRXr-53" style="edgeStyle=orthogonalEdgeStyle;orthogonalLoop=1;jettySize=auto;html=1;sketch=1;curved=1;" edge="1" parent="1" source="rhFOE1qrNNWpOJfDpRXr-54">
          <mxGeometry relative="1" as="geometry">
            <mxPoint x="499" y="1445" as="targetPoint" />
            <Array as="points">
              <mxPoint x="709" y="1445" />
              <mxPoint x="509" y="1445" />
            </Array>
          </mxGeometry>
        </mxCell>
        <mxCell id="rhFOE1qrNNWpOJfDpRXr-54" value="拉取申请记录详情" style="text;html=1;strokeColor=none;fillColor=none;align=center;verticalAlign=middle;whiteSpace=wrap;sketch=1;rounded=1;" vertex="1" parent="1">
          <mxGeometry x="679" y="1365" width="60" height="30" as="geometry" />
        </mxCell>
        <mxCell id="rhFOE1qrNNWpOJfDpRXr-55" value="" style="edgeStyle=orthogonalEdgeStyle;orthogonalLoop=1;jettySize=auto;html=1;endArrow=none;sketch=1;curved=1;" edge="1" parent="1" source="rhFOE1qrNNWpOJfDpRXr-52" target="rhFOE1qrNNWpOJfDpRXr-54">
          <mxGeometry relative="1" as="geometry">
            <mxPoint x="709" y="1885" as="targetPoint" />
            <mxPoint x="709" y="1315" as="sourcePoint" />
          </mxGeometry>
        </mxCell>
        <mxCell id="rhFOE1qrNNWpOJfDpRXr-56" value="边缘" style="text;html=1;strokeColor=none;fillColor=none;align=center;verticalAlign=middle;whiteSpace=wrap;fontSize=24;fontStyle=1;sketch=1;rounded=1;" vertex="1" parent="1">
          <mxGeometry x="819" y="1165" width="60" height="30" as="geometry" />
        </mxCell>
        <mxCell id="rhFOE1qrNNWpOJfDpRXr-57" style="edgeStyle=orthogonalEdgeStyle;orthogonalLoop=1;jettySize=auto;html=1;fontSize=11;startArrow=none;sketch=1;curved=1;" edge="1" parent="1" source="rhFOE1qrNNWpOJfDpRXr-60">
          <mxGeometry relative="1" as="geometry">
            <mxPoint x="40" y="1895" as="targetPoint" />
          </mxGeometry>
        </mxCell>
        <mxCell id="rhFOE1qrNNWpOJfDpRXr-58" value="host-abnormal" style="whiteSpace=wrap;html=1;sketch=1;rounded=1;" vertex="1" parent="1">
          <mxGeometry x="-20" y="1255" width="120" height="60" as="geometry" />
        </mxCell>
        <mxCell id="rhFOE1qrNNWpOJfDpRXr-59" style="edgeStyle=orthogonalEdgeStyle;orthogonalLoop=1;jettySize=auto;html=1;fontSize=11;sketch=1;curved=1;" edge="1" parent="1" source="rhFOE1qrNNWpOJfDpRXr-60">
          <mxGeometry relative="1" as="geometry">
            <mxPoint x="-140" y="1405" as="targetPoint" />
          </mxGeometry>
        </mxCell>
        <mxCell id="rhFOE1qrNNWpOJfDpRXr-60" value="&lt;span style=&quot;font-size: 11px ; text-align: center ; background-color: rgb(255 , 255 , 255)&quot;&gt;异步分析&lt;br&gt;主机异常&lt;/span&gt;" style="text;whiteSpace=wrap;html=1;sketch=1;rounded=1;" vertex="1" parent="1">
          <mxGeometry x="12.5" y="1385" width="55" height="40" as="geometry" />
        </mxCell>
        <mxCell id="rhFOE1qrNNWpOJfDpRXr-61" value="" style="edgeStyle=orthogonalEdgeStyle;orthogonalLoop=1;jettySize=auto;html=1;fontSize=11;endArrow=none;sketch=1;curved=1;" edge="1" parent="1" source="rhFOE1qrNNWpOJfDpRXr-58" target="rhFOE1qrNNWpOJfDpRXr-60">
          <mxGeometry relative="1" as="geometry">
            <mxPoint x="40" y="1895" as="targetPoint" />
            <mxPoint x="40" y="1315" as="sourcePoint" />
          </mxGeometry>
        </mxCell>
        <mxCell id="rhFOE1qrNNWpOJfDpRXr-62" style="edgeStyle=orthogonalEdgeStyle;orthogonalLoop=1;jettySize=auto;html=1;fontSize=11;startArrow=none;sketch=1;curved=1;" edge="1" parent="1" source="rhFOE1qrNNWpOJfDpRXr-65">
          <mxGeometry relative="1" as="geometry">
            <mxPoint x="-160" y="1895" as="targetPoint" />
          </mxGeometry>
        </mxCell>
        <mxCell id="rhFOE1qrNNWpOJfDpRXr-63" value="mysql" style="whiteSpace=wrap;html=1;sketch=1;rounded=1;" vertex="1" parent="1">
          <mxGeometry x="-220" y="1255" width="120" height="60" as="geometry" />
        </mxCell>
        <mxCell id="rhFOE1qrNNWpOJfDpRXr-64" style="edgeStyle=orthogonalEdgeStyle;orthogonalLoop=1;jettySize=auto;html=1;fontSize=11;sketch=1;curved=1;" edge="1" parent="1" source="rhFOE1qrNNWpOJfDpRXr-65">
          <mxGeometry relative="1" as="geometry">
            <mxPoint x="40" y="1455" as="targetPoint" />
            <Array as="points">
              <mxPoint x="-160" y="1455" />
              <mxPoint x="30" y="1455" />
            </Array>
          </mxGeometry>
        </mxCell>
        <mxCell id="rhFOE1qrNNWpOJfDpRXr-65" value="&lt;span style=&quot;font-size: 11px ; background-color: rgb(255 , 255 , 255)&quot;&gt;拉取异常申请记录&lt;/span&gt;" style="text;html=1;strokeColor=none;fillColor=none;align=center;verticalAlign=middle;whiteSpace=wrap;sketch=1;rounded=1;" vertex="1" parent="1">
          <mxGeometry x="-190" y="1395" width="60" height="30" as="geometry" />
        </mxCell>
        <mxCell id="rhFOE1qrNNWpOJfDpRXr-66" value="" style="edgeStyle=orthogonalEdgeStyle;orthogonalLoop=1;jettySize=auto;html=1;fontSize=11;endArrow=none;sketch=1;curved=1;" edge="1" parent="1" source="rhFOE1qrNNWpOJfDpRXr-63" target="rhFOE1qrNNWpOJfDpRXr-65">
          <mxGeometry relative="1" as="geometry">
            <mxPoint x="-160" y="1895" as="targetPoint" />
            <mxPoint x="-160" y="1315" as="sourcePoint" />
          </mxGeometry>
        </mxCell>
        <mxCell id="3nuBFxr9cyL0pnOWT2aG-8" value="" style="verticalAlign=bottom;endArrow=block;shadow=0;strokeWidth=1;sketch=1;curved=1;entryX=-0.104;entryY=0.141;entryDx=0;entryDy=0;entryPerimeter=0;" parent="1" target="3nuBFxr9cyL0pnOWT2aG-6" edge="1">
          <mxGeometry x="0.047" y="14" relative="1" as="geometry">
            <mxPoint x="150" y="-32" as="sourcePoint" />
            <mxPoint x="430" y="-32" as="targetPoint" />
            <Array as="points">
              <mxPoint x="280" y="-32" />
            </Array>
            <mxPoint as="offset" />
          </mxGeometry>
        </mxCell>
        <mxCell id="rhFOE1qrNNWpOJfDpRXr-72" value="获取申请单关联信息" style="edgeLabel;html=1;align=center;verticalAlign=middle;resizable=0;points=[];" vertex="1" connectable="0" parent="3nuBFxr9cyL0pnOWT2aG-8">
          <mxGeometry x="-0.0138" relative="1" as="geometry">
            <mxPoint x="26" as="offset" />
          </mxGeometry>
        </mxCell>
        <mxCell id="3nuBFxr9cyL0pnOWT2aG-9" value="" style="verticalAlign=bottom;endArrow=block;shadow=0;strokeWidth=1;sketch=1;curved=1;exitX=-0.286;exitY=0.792;exitDx=0;exitDy=0;exitPerimeter=0;entryX=0.5;entryY=0.406;entryDx=0;entryDy=0;entryPerimeter=0;" parent="1" source="3nuBFxr9cyL0pnOWT2aG-6" target="3nuBFxr9cyL0pnOWT2aG-2" edge="1">
          <mxGeometry x="-0.0521" y="-9" relative="1" as="geometry">
            <mxPoint x="439" as="sourcePoint" />
            <mxPoint x="150" y="8" as="targetPoint" />
            <mxPoint as="offset" />
          </mxGeometry>
        </mxCell>
        <mxCell id="rhFOE1qrNNWpOJfDpRXr-73" value="返回硬件信息，申请单事件" style="edgeLabel;html=1;align=center;verticalAlign=middle;resizable=0;points=[];" vertex="1" connectable="0" parent="3nuBFxr9cyL0pnOWT2aG-9">
          <mxGeometry x="0.0804" y="-1" relative="1" as="geometry">
            <mxPoint x="54" y="2" as="offset" />
          </mxGeometry>
        </mxCell>
      </root>
    </mxGraphModel>
  </diagram>
</mxfile>
